<svg xmlns="http://www.w3.org/2000/svg" fill="none" viewBox="0 0 20 20">
  <path fill="#576BCC" fill-rule="evenodd" d="M3 1a2 2 0 0 0-2 2v3c0 1.1.9 2 2 2h3a2 2 0 0 0 2-2V3a2 2 0 0 0-2-2H3Zm0 11a2 2 0 0 0-2 2v3c0 1.1.9 2 2 2h3a2 2 0 0 0 2-2v-3a2 2 0 0 0-2-2H3Zm9-9c0-1.1.9-2 2-2h3a2 2 0 0 1 2 2v3a2 2 0 0 1-2 2h-3a2 2 0 0 1-2-2V3Zm2 9a2 2 0 0 0-2 2v3c0 1.1.9 2 2 2h3a2 2 0 0 0 2-2v-3a2 2 0 0 0-2-2h-3Z" clip-rule="evenodd"/>
  <path fill="#576BCC" d="M2 3a1 1 0 0 1 1-1V0a3 3 0 0 0-3 3h2Zm0 3V3H0v3h2Zm1 1a1 1 0 0 1-1-1H0a3 3 0 0 0 3 3V7Zm3 0H3v2h3V7Zm1-1a1 1 0 0 1-1 1v2a3 3 0 0 0 3-3H7Zm0-3v3h2V3H7ZM6 2a1 1 0 0 1 1 1h2a3 3 0 0 0-3-3v2ZM3 2h3V0H3v2ZM2 14a1 1 0 0 1 1-1v-2a3 3 0 0 0-3 3h2Zm0 3v-3H0v3h2Zm1 1a1 1 0 0 1-1-1H0a3 3 0 0 0 3 3v-2Zm3 0H3v2h3v-2Zm1-1a1 1 0 0 1-1 1v2a3 3 0 0 0 3-3H7Zm0-3v3h2v-3H7Zm-1-1a1 1 0 0 1 1 1h2a3 3 0 0 0-3-3v2Zm-3 0h3v-2H3v2ZM14 0a3 3 0 0 0-3 3h2a1 1 0 0 1 1-1V0Zm3 0h-3v2h3V0Zm3 3a3 3 0 0 0-3-3v2a1 1 0 0 1 1 1h2Zm0 3V3h-2v3h2Zm-3 3a3 3 0 0 0 3-3h-2a1 1 0 0 1-1 1v2Zm-3 0h3V7h-3v2Zm-3-3a3 3 0 0 0 3 3V7a1 1 0 0 1-1-1h-2Zm0-3v3h2V3h-2Zm2 11a1 1 0 0 1 1-1v-2a3 3 0 0 0-3 3h2Zm0 3v-3h-2v3h2Zm1 1a1 1 0 0 1-1-1h-2a3 3 0 0 0 3 3v-2Zm3 0h-3v2h3v-2Zm1-1a1 1 0 0 1-1 1v2a3 3 0 0 0 3-3h-2Zm0-3v3h2v-3h-2Zm-1-1a1 1 0 0 1 1 1h2a3 3 0 0 0-3-3v2Zm-3 0h3v-2h-3v2Z"/>
</svg>
