<svg xmlns="http://www.w3.org/2000/svg" fill="none" viewBox="0 0 20 20">
  <path fill="#B4BEF0" fill-rule="evenodd" d="M9.55.1a1 1 0 0 1 .9 0l9 4.5a1 1 0 0 1 .55.9v7h-2V7.12l-7.55 3.77a1 1 0 0 1-.9 0l-9-4.5a1 1 0 0 1 0-1.78l9-4.5ZM3.24 5.5 10 8.88l6.76-3.38L10 2.12 3.24 5.5Zm1.23 5.15a1 1 0 0 1 .98-.04L10 12.88l4.55-2.27a1 1 0 0 1 1.45.89v5a1 1 0 0 1-.55.9l-5 2.5a1 1 0 0 1-.9 0l-5-2.5a1 1 0 0 1-.55-.9v-5a1 1 0 0 1 .47-.85ZM6 13.12v2.76l4 2 4-2v-2.76l-3.55 1.77a1 1 0 0 1-.9 0L6 13.12Z" clip-rule="evenodd"/>
</svg>
