<svg xmlns="http://www.w3.org/2000/svg" fill="none" viewBox="0 0 20 20">
  <path fill="#B4BEF0" d="M12 1h1a1 1 0 0 0-1-1v1ZM8 1V0a1 1 0 0 0-1 1h1Zm4 2.29h-1c0 .44.3.83.71.96l.29-.96Zm2.8 1.62-.68.73a1 1 0 0 0 1.19.14l-.5-.87Zm2-1.14.86-.5a1 1 0 0 0-1.37-.37l.5.87Zm2 3.46.5.87a1 1 0 0 0 .36-1.37l-.87.5ZM16.8 8.38l-.5-.87a1 1 0 0 0-.47 1.1l.97-.23Zm0 3.24-.97-.23a1 1 0 0 0 .47 1.1l.5-.87Zm1.98 1.15.87.5a1 1 0 0 0-.37-1.37l-.5.87Zm-2 3.46-.5.87a1 1 0 0 0 1.37-.37l-.87-.5Zm-1.98-1.14.5-.87a1 1 0 0 0-1.19.14l.69.73ZM12 16.7l-.29-.96a1 1 0 0 0-.71.96h1ZM12 19v1a1 1 0 0 0 1-1h-1Zm-4 0H7a1 1 0 0 0 1 1v-1Zm0-2.29h1a1 1 0 0 0-.71-.96l-.29.96Zm-2.81-1.62.69-.73a1 1 0 0 0-1.19-.14l.5.87Zm-1.98 1.14-.87.5a1 1 0 0 0 1.37.37l-.5-.87Zm-2-3.46-.5-.87a1 1 0 0 0-.37 1.37l.87-.5Zm1.98-1.15.5.87a1 1 0 0 0 .47-1.1l-.97.23Zm0-3.24.97.23a1 1 0 0 0-.47-1.1l-.5.87ZM1.2 7.23l-.87-.5A1 1 0 0 0 .71 8.1l.5-.87Zm2-3.46.5-.87a1 1 0 0 0-1.37.37l.87.5ZM5.19 4.9l-.5.87a1 1 0 0 0 1.19-.14l-.69-.73ZM8 3.3l.29.96A1 1 0 0 0 9 3.29H8ZM12 0H8v2h4V0Zm1 3.29V1h-2v2.29h2Zm2.5.9a8 8 0 0 0-3.21-1.86l-.58 1.92a6 6 0 0 1 2.41 1.39l1.38-1.45Zm.8-1.29-2 1.15 1 1.73 2-1.15-1-1.73Zm3.36 3.83-2-3.46-1.73 1 2 3.46 1.73-1Zm-2.35 2.51L19.3 8.1l-1-1.73-1.98 1.14 1 1.73ZM18 10c0-.64-.07-1.26-.22-1.85l-1.94.46c.1.44.16.91.16 1.39h2Zm-.22 1.85c.15-.6.22-1.21.22-1.85h-2c0 .48-.06.95-.16 1.4l1.94.45Zm1.51.05-1.98-1.14-1 1.73 1.98 1.14 1-1.73Zm-1.63 4.83 2-3.46-1.73-1-2 3.46 1.73 1Zm-3.35-.78 1.98 1.15 1-1.73-1.98-1.15-1 1.73Zm-2.02 1.72a8 8 0 0 0 3.2-1.86l-1.37-1.45a6 6 0 0 1-2.4 1.4l.57 1.9ZM13 19v-2.29h-2V19h2Zm-5 1h4v-2H8v2Zm-1-3.29V19h2v-2.29H7Zm-2.5-.9a8 8 0 0 0 3.21 1.86l.58-1.92a6 6 0 0 1-2.41-1.39L4.5 15.81Zm-.8 1.29 1.99-1.15-1-1.73-1.98 1.15 1 1.73ZM.35 13.27l2 3.46 1.73-1-2-3.46-1.73 1Zm2.35-2.51L.7 11.9l1 1.73 1.98-1.14-1-1.73ZM2 10c0 .64.07 1.26.22 1.85l1.94-.46C4.06 10.95 4 10.48 4 10H2Zm.22-1.85C2.07 8.75 2 9.36 2 10h2c0-.48.06-.95.16-1.4l-1.94-.45ZM.7 8.1l1.98 1.14 1-1.73L1.7 6.37.7 8.1Zm1.63-4.83-2 3.46 1.73 1 2-3.46-1.73-1Zm3.35.78L3.71 2.9l-1 1.73 1.98 1.15 1-1.73Zm2.02-1.72a8 8 0 0 0-3.2 1.86l1.37 1.45a6 6 0 0 1 2.4-1.4l-.57-1.9ZM7 1v2.29h2V1H7Zm5 9a2 2 0 0 1-2 2v2a4 4 0 0 0 4-4h-2Zm-2-2a2 2 0 0 1 2 2h2a4 4 0 0 0-4-4v2Zm-2 2c0-1.1.9-2 2-2V6a4 4 0 0 0-4 4h2Zm2 2a2 2 0 0 1-2-2H6a4 4 0 0 0 4 4v-2Z"/>
</svg>
