<svg viewBox="0 0 20 20" xmlns="http://www.w3.org/2000/svg">
  <defs>
    <style><![CDATA[
      .sprite { display: none; }
      .sprite:target { display: inline; }
    ]]></style>
  </defs>

<g class="sprite" id="logo">

  <path fill="#3C425F" d="M48.31 16.3h7.03v2.67H45V2.88h3.31v13.43ZM62.77 19.2a5.88 5.88 0 0 1-4.29-1.62 5.75 5.75 0 0 1-1.64-4.3v-.3c0-1.2.23-2.28.7-3.22a5.08 5.08 0 0 1 1.96-2.2 5.53 5.53 0 0 1 2.91-.76c1.64 0 2.92.51 3.86 1.54s1.41 2.5 1.41 4.39v1.3h-7.6c.1.78.4 1.4.92 1.88.52.47 1.18.7 1.98.7 1.23 0 2.19-.44 2.88-1.33l1.57 1.76a4.83 4.83 0 0 1-1.95 1.59c-.81.37-1.72.56-2.71.56Zm-.37-9.82c-.63 0-1.15.21-1.54.64a3.34 3.34 0 0 0-.75 1.84h4.43v-.26c-.01-.7-.2-1.25-.57-1.63-.37-.4-.89-.59-1.57-.59ZM73.55 4.08v2.94h2.04v2.34h-2.04v5.97c0 .44.08.75.25.95.17.19.5.28.97.28.36 0 .67-.02.94-.07v2.42c-.63.19-1.27.28-1.93.28-2.24 0-3.38-1.13-3.42-3.39V9.36H68.6V7.02h1.75V4.08h3.19ZM78.77 7.82l-1.5-.87c.63-1 .96-2.02.98-3.08V2h2.54v1.71a5.92 5.92 0 0 1-2.02 4.11ZM87.18 15.67c0-.4-.2-.7-.59-.92-.38-.23-1-.43-1.85-.6-2.84-.6-4.26-1.81-4.26-3.63 0-1.06.44-1.95 1.31-2.65a5.32 5.32 0 0 1 3.46-1.07 5.7 5.7 0 0 1 3.63 1.07 3.37 3.37 0 0 1 1.37 2.78h-3.2c0-.46-.14-.83-.43-1.13-.3-.3-.76-.45-1.38-.45-.54 0-.96.12-1.25.37-.3.24-.44.55-.44.92 0 .36.16.65.5.87.33.21.9.4 1.7.56.79.15 1.46.33 2 .53 1.69.62 2.53 1.69 2.53 3.22 0 1.09-.47 1.97-1.4 2.65-.94.67-2.14 1-3.62 1-1 0-1.9-.17-2.67-.53a4.54 4.54 0 0 1-1.82-1.47 3.44 3.44 0 0 1-.67-2.02h3.03c.03.57.24 1 .63 1.3.39.3.91.46 1.56.46.62 0 1.08-.12 1.38-.35.32-.23.48-.54.48-.91ZM106.97 14.75c0-.63-.22-1.1-.66-1.44a8.45 8.45 0 0 0-2.39-1.06 17.21 17.21 0 0 1-2.72-1.1c-1.83-.99-2.74-2.32-2.74-3.99 0-.87.24-1.64.73-2.32.5-.69 1.2-1.22 2.1-1.6a7.97 7.97 0 0 1 3.1-.58c1.15 0 2.17.21 3.07.63.9.42 1.6 1 2.08 1.76.5.76.75 1.62.75 2.59H107c0-.74-.24-1.31-.7-1.72a2.84 2.84 0 0 0-1.96-.62c-.8 0-1.44.18-1.88.52a1.6 1.6 0 0 0-.68 1.35c0 .52.26.96.79 1.32.53.35 1.3.68 2.33.99 1.88.57 3.25 1.27 4.11 2.11a4.2 4.2 0 0 1 1.3 3.14c0 1.4-.53 2.48-1.58 3.28a6.93 6.93 0 0 1-4.25 1.18 8.26 8.26 0 0 1-3.38-.67 4.8 4.8 0 0 1-3.12-4.6h3.32c0 1.77 1.06 2.65 3.18 2.65.78 0 1.4-.15 1.84-.47.44-.33.66-.77.66-1.35ZM123.31 13.1c0 1.85-.42 3.32-1.25 4.44a4 4 0 0 1-3.38 1.65c-1.2 0-2.18-.42-2.93-1.26v5.64h-3.19V7.02h2.96l.11 1.17a3.75 3.75 0 0 1 3.03-1.4c1.47 0 2.61.55 3.43 1.64.82 1.1 1.22 2.6 1.22 4.5v.17Zm-3.19-.23c0-1.11-.2-1.97-.6-2.57a1.9 1.9 0 0 0-1.7-.9c-1 0-1.7.37-2.07 1.14v4.9c.4.78 1.09 1.18 2.09 1.18 1.52 0 2.28-1.25 2.28-3.75ZM131.03 19.2a5.88 5.88 0 0 1-4.29-1.62 5.75 5.75 0 0 1-1.64-4.3v-.3c0-1.2.23-2.28.7-3.22a5.08 5.08 0 0 1 1.96-2.2 5.53 5.53 0 0 1 2.91-.76c1.64 0 2.92.51 3.86 1.54s1.4 2.5 1.4 4.39v1.3h-7.6c.1.78.41 1.4.93 1.88.52.47 1.18.7 1.98.7 1.22 0 2.19-.44 2.88-1.33l1.56 1.76a4.84 4.84 0 0 1-1.94 1.59c-.82.37-1.72.56-2.72.56Zm-.37-9.82c-.63 0-1.15.21-1.54.64a3.33 3.33 0 0 0-.75 1.84h4.43v-.26c-.01-.7-.2-1.25-.57-1.63-.37-.4-.9-.59-1.57-.59ZM144.9 18.97a3.55 3.55 0 0 1-.31-1.07 3.86 3.86 0 0 1-3.02 1.3 4.26 4.26 0 0 1-2.91-1.02 3.28 3.28 0 0 1-1.15-2.57c0-1.26.47-2.24 1.4-2.91.94-.68 2.3-1.02 4.08-1.03h1.46v-.69c0-.55-.14-1-.43-1.32-.28-.33-.72-.5-1.33-.5-.54 0-.96.13-1.27.39-.3.25-.45.6-.45 1.06h-3.2c0-.7.22-1.34.65-1.93a4.2 4.2 0 0 1 1.8-1.38c.79-.34 1.66-.5 2.63-.5 1.47 0 2.64.37 3.5 1.11.87.74 1.3 1.78 1.3 3.12v5.18c.01 1.13.17 2 .48 2.57v.2h-3.22Zm-2.63-2.22c.47 0 .9-.1 1.3-.3.4-.22.7-.5.88-.86v-2.05h-1.19c-1.6 0-2.44.55-2.55 1.65v.2c0 .39.13.72.41.97.28.26.66.4 1.15.4ZM154.67 14.18l-1.15 1.15v3.64h-3.19V2h3.2v9.4l.61-.8 3.06-3.58h3.83L156.7 12l4.7 6.97h-3.67l-3.07-4.8ZM49.7 26.11v5.98h-.66v-2.41h-1.85l-1.46 2.4H45l1.5-2.48c-.4-.11-.73-.32-.95-.62-.23-.3-.34-.67-.34-1.09 0-.54.2-.97.58-1.3a2.4 2.4 0 0 1 1.58-.48h2.33Zm-3.83 1.8c0 .35.11.63.33.86.23.22.54.34.94.35h1.9v-2.45h-1.69c-.46 0-.82.11-1.09.34-.26.22-.39.52-.39.9ZM56.96 27.7a.97.97 0 0 0-.4-.84c-.27-.2-.64-.3-1.1-.3-.44 0-.8.11-1.1.34-.3.21-.46.49-.46.82h-.66c0-.5.21-.9.64-1.23.42-.32.95-.48 1.57-.48.69 0 1.22.14 1.6.44.38.3.58.71.58 1.25 0 .29-.1.55-.27.78a1.7 1.7 0 0 1-.77.54c.76.21 1.15.69 1.15 1.43 0 .54-.21.96-.63 1.27-.41.32-.97.47-1.65.47-.67 0-1.22-.16-1.66-.5a1.58 1.58 0 0 1-.66-1.31h.67c0 .36.15.66.47.9.32.24.71.36 1.18.36.5 0 .9-.1 1.18-.31.28-.22.43-.5.43-.87 0-.4-.13-.7-.4-.87a2.16 2.16 0 0 0-1.2-.26h-.9v-.58h1.02c.91-.02 1.37-.37 1.37-1.06ZM61.9 28.28h1.72c.44 0 .83.08 1.16.24.34.16.59.38.76.67.17.28.26.61.26.99 0 .57-.2 1.04-.6 1.39-.4.34-.93.52-1.6.52h-2.36V26.1h.66v2.17Zm0 .57v2.68h1.71c.48 0 .85-.12 1.12-.36.27-.24.4-.57.4-.98 0-.4-.13-.72-.4-.96a1.54 1.54 0 0 0-1.07-.38H61.9Zm5.92 3.24h-.66V26.1h.66v5.98ZM73.26 29.35h-.92v2.74h-.66V26.1h.66v2.65h.91l2.2-2.65h.82l-2.45 2.9 2.73 3.08h-.88l-2.4-2.74ZM79 29.01c0-.57.1-1.1.32-1.55A2.55 2.55 0 0 1 81.65 26c.8 0 1.44.28 1.93.84.5.56.74 1.3.74 2.22v.13c0 .58-.1 1.1-.33 1.57a2.48 2.48 0 0 1-2.33 1.44c-.79 0-1.43-.28-1.93-.84-.5-.56-.74-1.3-.74-2.22v-.13Zm.65.18c0 .72.19 1.3.56 1.77.37.45.85.68 1.45.68s1.08-.23 1.45-.68a2.8 2.8 0 0 0 .56-1.82V29c0-.46-.09-.87-.26-1.25s-.4-.68-.7-.88a1.8 1.8 0 0 0-1.06-.32c-.59 0-1.07.24-1.44.7a2.8 2.8 0 0 0-.56 1.81v.12ZM87.74 32.09V26.1h2.2c.75 0 1.33.14 1.74.4.4.28.6.67.6 1.2 0 .3-.08.56-.26.8-.19.23-.45.4-.8.5.4.08.7.25.94.5.24.27.36.57.36.92 0 .53-.2.94-.58 1.23-.39.28-.94.43-1.65.43h-2.55Zm.66-2.75v2.2h1.92c.5 0 .87-.1 1.14-.3.27-.18.4-.46.4-.82 0-.33-.13-.6-.4-.79-.27-.2-.65-.3-1.14-.3H88.4Zm0-.56h1.67c1.04-.01 1.56-.36 1.56-1.06 0-.36-.14-.63-.43-.8a2.5 2.5 0 0 0-1.27-.25H88.4v2.11ZM99.74 32.09c-.06-.19-.1-.47-.12-.84-.23.3-.53.54-.9.7-.35.17-.73.25-1.13.25-.57 0-1.04-.16-1.4-.48a1.57 1.57 0 0 1-.52-1.22c0-.58.24-1.04.72-1.38a3.5 3.5 0 0 1 2.02-.5h1.2v-.69c0-.42-.13-.76-.4-1-.26-.25-.64-.37-1.14-.37-.46 0-.84.12-1.15.35-.3.24-.45.52-.45.85h-.66c0-.48.22-.89.66-1.24.44-.35.99-.52 1.63-.52.67 0 1.19.17 1.57.5.39.33.59.8.6 1.4v2.82c0 .58.06 1.01.18 1.3v.07h-.7Zm-2.07-.48c.44 0 .83-.1 1.18-.32.35-.21.6-.5.76-.85v-1.32h-1.18c-.66 0-1.17.13-1.54.37-.38.23-.56.55-.56.96 0 .33.12.61.37.83.25.22.57.33.97.33ZM108.37 26.11v5.98h-.66v-2.41h-1.86l-1.46 2.4h-.72l1.5-2.48c-.41-.11-.73-.32-.96-.62-.22-.3-.33-.67-.33-1.09 0-.54.19-.97.58-1.3a2.4 2.4 0 0 1 1.57-.48h2.34Zm-3.83 1.8c0 .35.1.63.33.86.22.22.53.34.93.35h1.9v-2.45h-1.68c-.46 0-.83.11-1.09.34-.26.22-.4.52-.4.9ZM120.66 26.11v5.42h2.66v-5.42h.66v5.42h2.63v-5.42h.67v5.98H120V26.1h.66ZM132.53 29.35h-.91v2.74h-.67V26.1h.67v2.65h.9l2.2-2.65h.82l-2.45 2.9 2.73 3.08h-.88l-2.4-2.74ZM138.26 29.01c0-.57.11-1.1.33-1.55a2.56 2.56 0 0 1 2.33-1.46c.8 0 1.44.28 1.94.84.49.56.73 1.3.73 2.22v.13c0 .58-.1 1.1-.33 1.57a2.48 2.48 0 0 1-2.33 1.44c-.79 0-1.43-.28-1.93-.84-.49-.56-.74-1.3-.74-2.22v-.13Zm.67.18c0 .72.18 1.3.55 1.77.37.45.86.68 1.45.68.6 0 1.08-.23 1.45-.68a2.8 2.8 0 0 0 .56-1.82V29c0-.46-.09-.87-.26-1.25s-.4-.68-.7-.88a1.8 1.8 0 0 0-1.06-.32c-.58 0-1.07.24-1.44.7a2.8 2.8 0 0 0-.55 1.81v.12ZM151.45 26.11v5.98h-.67v-5.41h-2.44l-.1 2.24a9.47 9.47 0 0 1-.25 1.9c-.13.43-.3.75-.55.96-.23.2-.55.3-.95.3h-.25v-.58h.2c.38-.02.65-.2.82-.56.16-.36.27-1 .32-1.93l.12-2.9h3.75ZM158.97 32.09c-.06-.19-.1-.47-.13-.84-.23.3-.52.54-.88.7-.36.17-.74.25-1.14.25-.58 0-1.04-.16-1.4-.48a1.57 1.57 0 0 1-.53-1.22c0-.58.24-1.04.73-1.38a3.5 3.5 0 0 1 2.02-.5h1.2v-.69c0-.42-.13-.76-.4-1-.26-.25-.64-.37-1.15-.37-.46 0-.84.12-1.14.35-.3.24-.45.52-.45.85h-.66c0-.48.22-.89.66-1.24.44-.35.98-.52 1.63-.52.66 0 1.19.17 1.57.5.39.33.58.8.6 1.4v2.82c0 .58.06 1.01.18 1.3v.07h-.7Zm-2.07-.48c.44 0 .83-.1 1.18-.32.35-.21.6-.5.76-.85v-1.32h-1.18c-.66 0-1.18.13-1.55.37-.37.23-.56.55-.56.96 0 .33.13.61.37.83.26.22.58.33.98.33Z"/>
  <path fill="url(#a)" fill-rule="evenodd" d="M0 8a8 8 0 0 1 8-8h17a8 8 0 0 1 8 8v15a8 8 0 0 1-8 8H15L5 36v-5.58A8 8 0 0 1 0 23V8Zm25 4a4 4 0 0 0-4-4h-9a4 4 0 0 0-4 4v6a4 4 0 0 0 4 4h2l8 4v-4.13A4 4 0 0 0 25 18v-6Z" clip-rule="evenodd"/>
  <defs>
    <linearGradient id="a" x1="33" x2="0" y1="0" y2="36" gradientUnits="userSpaceOnUse">
      <stop stop-color="#6F85EF"/>
      <stop offset="1" stop-color="#0DE1D4"/>
    </linearGradient>
  </defs>
</g>


<g class="sprite" id="search">
<path fill="#B4BEF0" fill-rule="evenodd" d="M14 8A6 6 0 1 1 2 8a6 6 0 0 1 12 0Zm-1.1 6.32a8 8 0 1 1 1.41-1.41l5.7 5.68L18.58 20l-5.68-5.68Z" clip-rule="evenodd"/>
</g>

<g class="sprite" id="class">
<path fill="#B4BEF0" fill-rule="evenodd" d="M9.55.1a1 1 0 0 1 .9 0l9 4.5a1 1 0 0 1 .55.9v7h-2V7.12l-7.55 3.77a1 1 0 0 1-.9 0l-9-4.5a1 1 0 0 1 0-1.78l9-4.5ZM3.24 5.5 10 8.88l6.76-3.38L10 2.12 3.24 5.5Zm1.23 5.15a1 1 0 0 1 .98-.04L10 12.88l4.55-2.27a1 1 0 0 1 1.45.89v5a1 1 0 0 1-.55.9l-5 2.5a1 1 0 0 1-.9 0l-5-2.5a1 1 0 0 1-.55-.9v-5a1 1 0 0 1 .47-.85ZM6 13.12v2.76l4 2 4-2v-2.76l-3.55 1.77a1 1 0 0 1-.9 0L6 13.12Z" clip-rule="evenodd"/>
</g>

<g class="sprite" id="cabinet">
<path fill="#576BCC" fill-rule="evenodd" d="M3 1a2 2 0 0 0-2 2v3c0 1.1.9 2 2 2h3a2 2 0 0 0 2-2V3a2 2 0 0 0-2-2H3Zm0 11a2 2 0 0 0-2 2v3c0 1.1.9 2 2 2h3a2 2 0 0 0 2-2v-3a2 2 0 0 0-2-2H3Zm9-9c0-1.1.9-2 2-2h3a2 2 0 0 1 2 2v3a2 2 0 0 1-2 2h-3a2 2 0 0 1-2-2V3Zm2 9a2 2 0 0 0-2 2v3c0 1.1.9 2 2 2h3a2 2 0 0 0 2-2v-3a2 2 0 0 0-2-2h-3Z" clip-rule="evenodd"/>
<path fill="#576BCC" d="M2 3a1 1 0 0 1 1-1V0a3 3 0 0 0-3 3h2Zm0 3V3H0v3h2Zm1 1a1 1 0 0 1-1-1H0a3 3 0 0 0 3 3V7Zm3 0H3v2h3V7Zm1-1a1 1 0 0 1-1 1v2a3 3 0 0 0 3-3H7Zm0-3v3h2V3H7ZM6 2a1 1 0 0 1 1 1h2a3 3 0 0 0-3-3v2ZM3 2h3V0H3v2ZM2 14a1 1 0 0 1 1-1v-2a3 3 0 0 0-3 3h2Zm0 3v-3H0v3h2Zm1 1a1 1 0 0 1-1-1H0a3 3 0 0 0 3 3v-2Zm3 0H3v2h3v-2Zm1-1a1 1 0 0 1-1 1v2a3 3 0 0 0 3-3H7Zm0-3v3h2v-3H7Zm-1-1a1 1 0 0 1 1 1h2a3 3 0 0 0-3-3v2Zm-3 0h3v-2H3v2ZM14 0a3 3 0 0 0-3 3h2a1 1 0 0 1 1-1V0Zm3 0h-3v2h3V0Zm3 3a3 3 0 0 0-3-3v2a1 1 0 0 1 1 1h2Zm0 3V3h-2v3h2Zm-3 3a3 3 0 0 0 3-3h-2a1 1 0 0 1-1 1v2Zm-3 0h3V7h-3v2Zm-3-3a3 3 0 0 0 3 3V7a1 1 0 0 1-1-1h-2Zm0-3v3h2V3h-2Zm2 11a1 1 0 0 1 1-1v-2a3 3 0 0 0-3 3h2Zm0 3v-3h-2v3h2Zm1 1a1 1 0 0 1-1-1h-2a3 3 0 0 0 3 3v-2Zm3 0h-3v2h3v-2Zm1-1a1 1 0 0 1-1 1v2a3 3 0 0 0 3-3h-2Zm0-3v3h2v-3h-2Zm-1-1a1 1 0 0 1 1 1h2a3 3 0 0 0-3-3v2Zm-3 0h3v-2h-3v2Z"/>
</g>

<g class="sprite" id="book">
<path fill="#B4BEF0" d="m1 1 .45-.9A1 1 0 0 0 0 1h1Zm18 0h1a1 1 0 0 0-1.45-.9L19 1Zm0 13.5.45.9a1 1 0 0 0 .55-.9h-1ZM10 19l-.45.9a1 1 0 0 0 .9 0L10 19Zm-9-4.5H0a1 1 0 0 0 .55.9l.45-.9ZM.55 1.9l9 4.5.9-1.8-9-4.5-.9 1.8Zm9.9 4.5 9-4.5-.9-1.8-9 4.5.9 1.8ZM18 1v13.5h2V1h-2Zm.55 12.6-9 4.5.9 1.8 9-4.5-.9-1.8Zm-8.1 4.5-9-4.5-.9 1.8 9 4.5.9-1.8ZM2 14.5V1H0v13.5h2Zm7-9V19h2V5.5H9Z"/>
</g>

<g class="sprite" id="home">
<path stroke="#B4BEF0" stroke-linejoin="round" stroke-width="2" d="M17 9h2l-9-8-9 8h2v10h4v-6h6v6h4V9Z" clip-rule="evenodd" fill="none" />
</g>

<g class="sprite" id="exam">
<path fill="#B4BEF0" fill-rule="evenodd" d="M5.3.3A1 1 0 0 1 6 0h9a1 1 0 0 1 1 1v6.5A6.5 6.5 0 1 1 8.81 18H1a1 1 0 0 1-1-1V6a1 1 0 0 1 .3-.7l5-5ZM14 2v5.02A6.5 6.5 0 0 0 7.5 16H2V7h4a1 1 0 0 0 1-1V2h7ZM3.41 5H5V3.41L3.41 5ZM13.5 9a4.5 4.5 0 1 0 0 9 4.5 4.5 0 0 0 0-9Zm.26 6.65 3-3.5-1.52-1.3-2.35 2.74-1.24-1.06-1.3 1.52 2 1.7.76.66.65-.76Z" clip-rule="evenodd"/>
</g>

<g class="sprite" id="gear">
<path fill="#B4BEF0" d="M12 1h1a1 1 0 0 0-1-1v1ZM8 1V0a1 1 0 0 0-1 1h1Zm4 2.29h-1c0 .44.3.83.71.96l.29-.96Zm2.8 1.62-.68.73a1 1 0 0 0 1.19.14l-.5-.87Zm2-1.14.86-.5a1 1 0 0 0-1.37-.37l.5.87Zm2 3.46.5.87a1 1 0 0 0 .36-1.37l-.87.5ZM16.8 8.38l-.5-.87a1 1 0 0 0-.47 1.1l.97-.23Zm0 3.24-.97-.23a1 1 0 0 0 .47 1.1l.5-.87Zm1.98 1.15.87.5a1 1 0 0 0-.37-1.37l-.5.87Zm-2 3.46-.5.87a1 1 0 0 0 1.37-.37l-.87-.5Zm-1.98-1.14.5-.87a1 1 0 0 0-1.19.14l.69.73ZM12 16.7l-.29-.96a1 1 0 0 0-.71.96h1ZM12 19v1a1 1 0 0 0 1-1h-1Zm-4 0H7a1 1 0 0 0 1 1v-1Zm0-2.29h1a1 1 0 0 0-.71-.96l-.29.96Zm-2.81-1.62.69-.73a1 1 0 0 0-1.19-.14l.5.87Zm-1.98 1.14-.87.5a1 1 0 0 0 1.37.37l-.5-.87Zm-2-3.46-.5-.87a1 1 0 0 0-.37 1.37l.87-.5Zm1.98-1.15.5.87a1 1 0 0 0 .47-1.1l-.97.23Zm0-3.24.97.23a1 1 0 0 0-.47-1.1l-.5.87ZM1.2 7.23l-.87-.5A1 1 0 0 0 .71 8.1l.5-.87Zm2-3.46.5-.87a1 1 0 0 0-1.37.37l.87.5ZM5.19 4.9l-.5.87a1 1 0 0 0 1.19-.14l-.69-.73ZM8 3.3l.29.96A1 1 0 0 0 9 3.29H8ZM12 0H8v2h4V0Zm1 3.29V1h-2v2.29h2Zm2.5.9a8 8 0 0 0-3.21-1.86l-.58 1.92a6 6 0 0 1 2.41 1.39l1.38-1.45Zm.8-1.29-2 1.15 1 1.73 2-1.15-1-1.73Zm3.36 3.83-2-3.46-1.73 1 2 3.46 1.73-1Zm-2.35 2.51L19.3 8.1l-1-1.73-1.98 1.14 1 1.73ZM18 10c0-.64-.07-1.26-.22-1.85l-1.94.46c.1.44.16.91.16 1.39h2Zm-.22 1.85c.15-.6.22-1.21.22-1.85h-2c0 .48-.06.95-.16 1.4l1.94.45Zm1.51.05-1.98-1.14-1 1.73 1.98 1.14 1-1.73Zm-1.63 4.83 2-3.46-1.73-1-2 3.46 1.73 1Zm-3.35-.78 1.98 1.15 1-1.73-1.98-1.15-1 1.73Zm-2.02 1.72a8 8 0 0 0 3.2-1.86l-1.37-1.45a6 6 0 0 1-2.4 1.4l.57 1.9ZM13 19v-2.29h-2V19h2Zm-5 1h4v-2H8v2Zm-1-3.29V19h2v-2.29H7Zm-2.5-.9a8 8 0 0 0 3.21 1.86l.58-1.92a6 6 0 0 1-2.41-1.39L4.5 15.81Zm-.8 1.29 1.99-1.15-1-1.73-1.98 1.15 1 1.73ZM.35 13.27l2 3.46 1.73-1-2-3.46-1.73 1Zm2.35-2.51L.7 11.9l1 1.73 1.98-1.14-1-1.73ZM2 10c0 .64.07 1.26.22 1.85l1.94-.46C4.06 10.95 4 10.48 4 10H2Zm.22-1.85C2.07 8.75 2 9.36 2 10h2c0-.48.06-.95.16-1.4l-1.94-.45ZM.7 8.1l1.98 1.14 1-1.73L1.7 6.37.7 8.1Zm1.63-4.83-2 3.46 1.73 1 2-3.46-1.73-1Zm3.35.78L3.71 2.9l-1 1.73 1.98 1.15 1-1.73Zm2.02-1.72a8 8 0 0 0-3.2 1.86l1.37 1.45a6 6 0 0 1 2.4-1.4l-.57-1.9ZM7 1v2.29h2V1H7Zm5 9a2 2 0 0 1-2 2v2a4 4 0 0 0 4-4h-2Zm-2-2a2 2 0 0 1 2 2h2a4 4 0 0 0-4-4v2Zm-2 2c0-1.1.9-2 2-2V6a4 4 0 0 0-4 4h2Zm2 2a2 2 0 0 1-2-2H6a4 4 0 0 0 4 4v-2Z"/>
</g>

<g class="sprite" id="bell">
  <mask id="a" fill="#fff">
    <path fill-rule="evenodd" d="M2 7a7 7 0 0 1 14 0v7h2v2H0v-2h2V7Zm5 11v2h4v-2H7Z" clip-rule="evenodd"/>
  </mask>
  <path fill="#B4BEF0" d="M16 14h-2v2h2v-2Zm2 0h2v-2h-2v2Zm0 2v2h2v-2h-2ZM0 16h-2v2h2v-2Zm0-2v-2h-2v2h2Zm2 0v2h2v-2H2Zm5 6H5v2h2v-2Zm0-2v-2H5v2h2Zm4 2v2h2v-2h-2Zm0-2h2v-2h-2v2ZM9-2a9 9 0 0 0-9 9h4a5 5 0 0 1 5-5v-4Zm9 9a9 9 0 0 0-9-9v4a5 5 0 0 1 5 5h4Zm0 7V7h-4v7h4Zm0-2h-2v4h2v-4Zm2 4v-2h-4v2h4ZM0 18h18v-4H0v4Zm-2-4v2h4v-2h-4Zm4-2H0v4h2v-4ZM0 7v7h4V7H0Zm9 13v-2H5v2h4Zm2-2H7v4h4v-4Zm-2 0v2h4v-2H9Zm-2 2h4v-4H7v4Z" mask="url(#a)"/>
</g>



</svg>